<svg xmlns="http://www.w3.org/2000/svg" viewBox="0 0 413.97 172.36"><defs><style>.cls-1{fill:#fff2f0;}</style></defs><g id="Layer_2" data-name="Layer 2"><g id="Layer_1-2" data-name="Layer 1"><path class="cls-1" d="M348.09,137.14c-87.64,47-194.57,47-282.21,0C32.89,120,11.08,90.6,3.49,65.32c-8-25.63-1.71-47.19,12.82-57h0c14.83-10.22,34.8-9.44,54.2-6A203.8,203.8,0,0,1,127.42,22.5a169.31,169.31,0,0,0,159.13,0A203.46,203.46,0,0,1,343.46,2.36c19.4-3.49,39.37-4.27,54.21,6h0c14.52,9.82,20.78,31.38,12.81,57C402.89,90.6,381.08,120,348.09,137.14Z"/></g></g></svg>