<svg xmlns="http://www.w3.org/2000/svg" viewBox="0 0 1309 295"><defs><style>.cls-1{fill:#eac5a4;}</style></defs><g id="Layer_2" data-name="Layer 2"><g id="Layer_1-2" data-name="Layer 1"><path class="cls-1" d="M0,3H148.42A143.58,143.58,0,0,1,292,146.58V252a43,43,0,0,1-43,43h0A249,249,0,0,1,0,46V3A0,0,0,0,1,0,3Z"/><path class="cls-1" d="M1266,0h0a43,43,0,0,1,43,43V148.42A143.58,143.58,0,0,1,1165.42,292H1017a0,0,0,0,1,0,0V249A249,249,0,0,1,1266,0Z" transform="translate(2326 292) rotate(-180)"/></g></g></svg>