<svg xmlns="http://www.w3.org/2000/svg" viewBox="0 0 518 518"><defs><style>.cls-1{fill:#282140;}</style></defs><g id="Layer_2" data-name="Layer 2"><g id="Layer_1-2" data-name="Layer 1"><path class="cls-1" d="M457.26,0H60.74A60.75,60.75,0,0,0,0,60.74V457.26A60.75,60.75,0,0,0,60.74,518H457.26A60.75,60.75,0,0,0,518,457.26V60.74A60.75,60.75,0,0,0,457.26,0Zm-48.6,416.27L255.84,449.52a58.35,58.35,0,0,1-69.43-44.61l-.4-1.85-30.27,6.58A79.36,79.36,0,0,1,61.32,349L43.15,265.49a79.37,79.37,0,0,1,60.67-94.41l30.27-6.59-.24-1.09A58.36,58.36,0,0,1,178.46,94L331.28,60.72a58.34,58.34,0,0,1,69.43,44.6l52.56,241.52A58.36,58.36,0,0,1,408.66,416.27Z"/><path class="cls-1" d="M118.15,198a58.3,58.3,0,0,0-44.56,69.36l14.64,67.29a58.31,58.31,0,0,0,69.36,44.57l22.18-4.83L140.33,193.17Z"/></g></g></svg>