<svg xmlns="http://www.w3.org/2000/svg" viewBox="0 0 518 518"><defs><style>.cls-1{fill:#282140;}</style></defs><g id="Layer_2" data-name="Layer 2"><g id="Layer_1-2" data-name="Layer 1"><path class="cls-1" d="M457.26,0H60.74A60.75,60.75,0,0,0,0,60.74V457.26A60.75,60.75,0,0,0,60.74,518H457.26A60.75,60.75,0,0,0,518,457.26V60.74A60.75,60.75,0,0,0,457.26,0Zm-371,441.45H86a31.33,31.33,0,1,1,0-62.65h.34a31.33,31.33,0,1,1,0,62.65Zm0-152H86a31.33,31.33,0,1,1,0-62.65h.34a31.33,31.33,0,1,1,0,62.65Zm.38-150.79h-.35a31.33,31.33,0,0,1,0-62.66h.35a31.33,31.33,0,0,1,0,62.66Zm376,271.14a30,30,0,0,1-30,30h-264a30,30,0,0,1-30-30h0a30,30,0,0,1,30-30h264a30,30,0,0,1,30,30Zm0-152a30,30,0,0,1-30,30h-264a30,30,0,0,1-30-30h0a30,30,0,0,1,30-30h264a30,30,0,0,1,30,30ZM433,137H169a30,30,0,0,1,0-60H433a30,30,0,0,1,0,60Z"/></g></g></svg>