<svg xmlns="http://www.w3.org/2000/svg" viewBox="0 0 518 518"><defs><style>.cls-1{fill:#282140;}</style></defs><g id="Layer_2" data-name="Layer 2"><g id="Layer_1-2" data-name="Layer 1"><path class="cls-1" d="M457.26,0H60.74A60.75,60.75,0,0,0,0,60.74V457.26A60.75,60.75,0,0,0,60.74,518H457.26A60.75,60.75,0,0,0,518,457.26V60.74A60.75,60.75,0,0,0,457.26,0ZM463,199.63h0a26.74,26.74,0,0,1-37.29-6.33L406.29,166l-38.11,27,19.38,27.31a26.74,26.74,0,0,1-6.33,37.29h0a26.75,26.75,0,0,1-37.29-6.33L324.56,224l-98.95,70.22A93.21,93.21,0,1,1,196,252.79l212.81-151a14.23,14.23,0,0,1,19.84,3.37l10.7,15.08,29.91,42.13A26.75,26.75,0,0,1,463,199.63Z"/><circle class="cls-1" cx="137.88" cy="325.27" r="52.97" transform="translate(-164.6 142.75) rotate(-35.92)"/></g></g></svg>