<svg id="Layer_4" data-name="Layer 4" xmlns="http://www.w3.org/2000/svg" viewBox="0 0 1600 1600"><defs><style>.cls-1{fill:#5e142d;}</style></defs><path class="cls-1" d="M625.1,254.66h327a0,0,0,0,1,0,0v310a0,0,0,0,1,0,0h-17a310,310,0,0,1-310-310v0A0,0,0,0,1,625.1,254.66Z"/><path class="cls-1" d="M943.64,254.66h327a0,0,0,0,1,0,0v310a0,0,0,0,1,0,0h-17a310,310,0,0,1-310-310v0A0,0,0,0,1,943.64,254.66Z"/><rect class="cls-1" x="304.61" y="260.87" width="63.12" height="501.12" rx="29.49"/><rect class="cls-1" x="1242.61" y="352.54" width="63" height="412.33" rx="26.72"/></svg>