<svg xmlns="http://www.w3.org/2000/svg" viewBox="0 0 1001 672"><defs><style>.cls-1{fill:#5e142d;}</style></defs><g id="Layer_2" data-name="Layer 2"><g id="Layer_1-2" data-name="Layer 1"><path class="cls-1" d="M22,0H349a0,0,0,0,1,0,0V310a0,0,0,0,1,0,0H332A310,310,0,0,1,22,0V0A0,0,0,0,1,22,0Z"/><path class="cls-1" d="M320.49,0h327a0,0,0,0,1,0,0V310a0,0,0,0,1,0,0h-17a310,310,0,0,1-310-310V0A0,0,0,0,1,320.49,0Z"/><path class="cls-1" d="M639,0H966a0,0,0,0,1,0,0V310a0,0,0,0,1,0,0H949A310,310,0,0,1,639,0V0A0,0,0,0,1,639,0Z"/><rect class="cls-1" y="95" width="63" height="573" rx="31.5"/><rect class="cls-1" x="938" y="99" width="63" height="573" rx="31.5"/></g></g></svg>