<svg id="Layer_4" data-name="Layer 4" xmlns="http://www.w3.org/2000/svg" viewBox="0 0 1600 1600"><defs><style>.cls-1{fill:#5e142d;}</style></defs><path class="cls-1" d="M331.62,267.6h327a0,0,0,0,1,0,0v310a0,0,0,0,1,0,0h-17a310,310,0,0,1-310-310v0A0,0,0,0,1,331.62,267.6Z"/><path class="cls-1" d="M630.12,267.6h327a0,0,0,0,1,0,0v310a0,0,0,0,1,0,0h-17a310,310,0,0,1-310-310v0A0,0,0,0,1,630.12,267.6Z"/><path class="cls-1" d="M948.65,267.6h327a0,0,0,0,1,0,0v310a0,0,0,0,1,0,0h-17a310,310,0,0,1-310-310v0A0,0,0,0,1,948.65,267.6Z"/><rect class="cls-1" x="309.62" y="362.6" width="63" height="573" rx="31.5"/><rect class="cls-1" x="1247.62" y="366.6" width="63" height="573" rx="31.5"/><rect class="cls-1" x="452.62" y="130.6" width="703" height="204"/></svg>