<svg xmlns="http://www.w3.org/2000/svg" viewBox="0 0 430.98 126.74"><defs><style>.cls-1{fill:#d37762;}</style></defs><g id="Layer_2" data-name="Layer 2"><g id="Layer_1-2" data-name="Layer 1"><path class="cls-1" d="M215.49,126.74A263.14,263.14,0,0,1,97.86,99a257.9,257.9,0,0,1-96-83.24A10,10,0,1,1,18.18,4.25a238.17,238.17,0,0,0,88.66,76.87,243.1,243.1,0,0,0,108.65,25.62A243.16,243.16,0,0,0,324.14,81.12,238.17,238.17,0,0,0,412.8,4.25a10,10,0,0,1,16.36,11.5,257.9,257.9,0,0,1-96,83.24A263.14,263.14,0,0,1,215.49,126.74Z"/></g></g></svg>