<svg id="Layer_4" data-name="Layer 4" xmlns="http://www.w3.org/2000/svg" viewBox="0 0 1600 1600"><defs><style>.cls-1{fill:#fff2f0;}</style></defs><path class="cls-1" d="M937.61,1207.21c-87.64,47-194.58,47-282.22,0-33-17.19-54.79-46.54-62.39-71.82-8-25.64-1.71-47.2,12.82-57h0c14.84-10.23,34.81-9.45,54.21-6a203.6,203.6,0,0,1,56.91,20.15,169.35,169.35,0,0,0,159.12,0A203.55,203.55,0,0,1,933,1072.42c19.39-3.49,39.36-4.27,54.2,6h0c14.53,9.82,20.78,31.38,12.82,57C992.4,1160.67,970.59,1190,937.61,1207.21Z"/></svg>