<svg xmlns="http://www.w3.org/2000/svg" viewBox="0 0 1262 1110"><defs><style>.cls-1{fill:#f7643c;}.cls-2{fill:#c44b30;}</style></defs><g id="Layer_2" data-name="Layer 2"><g id="Layer_1-2" data-name="Layer 1"><rect class="cls-1" x="64" y="76" width="1133" height="929" rx="430.11"/><rect class="cls-2" x="470" width="308" height="175" rx="64.69"/><path class="cls-1" d="M988,131h0a274,274,0,0,1,274,274v705a0,0,0,0,1,0,0H988a0,0,0,0,1,0,0V131A0,0,0,0,1,988,131Z"/><path class="cls-1" d="M0,131H274a0,0,0,0,1,0,0V836A274,274,0,0,1,0,1110H0a0,0,0,0,1,0,0V131A0,0,0,0,1,0,131Z" transform="translate(274 1241) rotate(-180)"/></g></g></svg>