<svg xmlns="http://www.w3.org/2000/svg" viewBox="0 0 1200.17 1091.44"><defs><style>.cls-1{fill:#a02b4a;}.cls-2{fill:#d3407c;}.cls-3,.cls-4,.cls-5{fill:#f4d9e2;}.cls-4{font-size:83px;font-family:Menlo-Italic, Menlo;font-style:italic;letter-spacing:0.2em;}.cls-5{font-size:20.38px;font-family:Georgia-Bold, Georgia;font-weight:700;letter-spacing:0.2em;}</style></defs><g id="Layer_2" data-name="Layer 2"><g id="Layer_1-2" data-name="Layer 1"><rect class="cls-1" x="33.09" y="46" width="1133" height="934.44" rx="431.37"/><path class="cls-2" d="M0,112.44H242.09a0,0,0,0,1,0,0V865.92A225.52,225.52,0,0,1,16.57,1091.44H0a0,0,0,0,1,0,0v-979A0,0,0,0,1,0,112.44Z" transform="translate(242.09 1203.88) rotate(-180)"/><path class="cls-2" d="M958.09,112.44h16.57A225.52,225.52,0,0,1,1200.17,338v753.48a0,0,0,0,1,0,0H958.09a0,0,0,0,1,0,0v-979A0,0,0,0,1,958.09,112.44Z"/><rect class="cls-3" x="459" y="46" width="271" height="934"/><rect class="cls-3" x="427" width="339" height="106" rx="53"/><text class="cls-4" transform="translate(799.25 333.96)">♫</text><text class="cls-5" transform="translate(794.2 366.48)">bard.</text></g></g></svg>