<svg xmlns="http://www.w3.org/2000/svg" viewBox="0 0 1013 1035"><defs><style>.cls-1{fill:#3a5260;}</style></defs><g id="Layer_2" data-name="Layer 2"><g id="Layer_1-2" data-name="Layer 1"><path class="cls-1" d="M1.34,0H40A40,40,0,0,1,80,40V459a40,40,0,0,1-40,40h0A40,40,0,0,1,0,459V1.34A1.34,1.34,0,0,1,1.34,0Z"/><path class="cls-1" d="M972,0h0a40,40,0,0,1,40,40V459a40,40,0,0,1-40,40H933.34a1.34,1.34,0,0,1-1.34-1.34V40A40,40,0,0,1,972,0Z" transform="translate(1944 499) rotate(180)"/><path class="cls-1" d="M0,459V559.08C0,821.92,213.08,1035,475.92,1035H1013V459ZM752,662.72A84.28,84.28,0,0,1,667.72,747H338.28A84.28,84.28,0,0,1,254,662.72V583.28A84.28,84.28,0,0,1,338.28,499H667.72A84.28,84.28,0,0,1,752,583.28Z"/></g></g></svg>