<svg id="Layer_1" data-name="Layer 1" xmlns="http://www.w3.org/2000/svg" viewBox="0 0 1600 1600"><defs><style>.cls-1{fill:#a02b4a;}.cls-2{fill:#d3407c;}.cls-3,.cls-4,.cls-5{fill:#f4d9e2;}.cls-4{font-size:83px;font-family:Menlo-Italic, Menlo;font-style:italic;letter-spacing:0.2em;}.cls-5{font-size:20.38px;font-family:Georgia-Bold, Georgia;font-weight:700;letter-spacing:0.2em;}</style></defs><rect class="cls-1" x="226.09" y="329" width="1133" height="934.44" rx="431.37"/><path class="cls-2" d="M193,395.44H435.09a0,0,0,0,1,0,0v753.48a225.52,225.52,0,0,1-225.52,225.52H193a0,0,0,0,1,0,0v-979A0,0,0,0,1,193,395.44Z" transform="translate(628.09 1769.88) rotate(-180)"/><path class="cls-2" d="M1151.09,395.44h16.57A225.52,225.52,0,0,1,1393.17,621v753.48a0,0,0,0,1,0,0H1151.09a0,0,0,0,1,0,0v-979A0,0,0,0,1,1151.09,395.44Z"/><rect class="cls-3" x="652" y="329" width="271" height="934"/><rect class="cls-3" x="620" y="283" width="339" height="106" rx="53"/><text class="cls-4" transform="translate(992.25 616.96)">♫</text><text class="cls-5" transform="translate(987.2 649.48)">bard.</text></svg>