<svg xmlns="http://www.w3.org/2000/svg" viewBox="0 0 1599.74 1390.69"><defs><style>.cls-1,.cls-2,.cls-6{fill:none;stroke-linejoin:round;}.cls-1{stroke:#e8dbd1;stroke-linecap:round;stroke-width:20px;}.cls-2{stroke:#2b221c;stroke-width:80px;}.cls-3{fill:#7ead40;}.cls-4{fill:#3f312e;}.cls-5{fill:#68843c;}.cls-6{stroke:#5e4532;stroke-linecap:square;stroke-width:40px;}</style></defs><g id="Layer_2" data-name="Layer 2"><g id="Layer_1-2" data-name="Layer 1"><line class="cls-1" x1="202.11" y1="1148.46" x2="1541.39" y2="69.29"/><path class="cls-2" d="M1560.4,7.25S1445.27,631.64,1213.34,688s-212.77,214.78-212.77,214.78S158.18,1209,10.49,1168.84"/><rect class="cls-3" x="364.49" y="345.25" width="1133" height="934.44" rx="431.37"/><rect class="cls-4" x="770.49" y="274.69" width="308" height="175" rx="64.69"/><path class="cls-4" d="M331.4,411.69H573.49a0,0,0,0,1,0,0v753.48A225.52,225.52,0,0,1,348,1390.69H331.4a0,0,0,0,1,0,0v-979A0,0,0,0,1,331.4,411.69Z" transform="translate(904.89 1802.39) rotate(-180)"/><path class="cls-5" d="M574.49,771.25V407.69h0c-151.33,0-274,122.68-274,274v57.92a31.63,31.63,0,0,0,31.64,31.64Z"/><path class="cls-4" d="M1289.49,411.69h16.57a225.52,225.52,0,0,1,225.52,225.52v753.48a0,0,0,0,1,0,0H1289.49a0,0,0,0,1,0,0v-979A0,0,0,0,1,1289.49,411.69Z"/><path class="cls-5" d="M1288.49,771.25V407.69h0c151.32,0,274,122.68,274,274v57.92a31.64,31.64,0,0,1-31.64,31.64Z"/><path class="cls-6" d="M1231.2,378S1048,1113.28,626.71,1245.26"/></g></g></svg>