<svg id="Layer_1" data-name="Layer 1" xmlns="http://www.w3.org/2000/svg" viewBox="0 0 1600 1600"><defs><style>.cls-1{fill:#373a59;}.cls-2{fill:#3f312e;}.cls-3,.cls-4{fill:#252f3f;}.cls-4{font-size:72px;font-family:Menlo-Italic, Menlo;font-style:italic;letter-spacing:0.2em;}</style></defs><rect class="cls-1" x="233.25" y="314.39" width="1133" height="934.44" rx="431.37"/><rect class="cls-2" x="639.25" y="243.83" width="308" height="175" rx="64.69"/><path class="cls-2" d="M200.16,380.83H442.25a0,0,0,0,1,0,0v753.48a225.52,225.52,0,0,1-225.52,225.52H200.16a0,0,0,0,1,0,0v-979A0,0,0,0,1,200.16,380.83Z" transform="translate(642.41 1740.66) rotate(-180)"/><path class="cls-3" d="M443.25,740.39V376.83h0c-151.33,0-274,122.68-274,274v57.92a31.63,31.63,0,0,0,31.64,31.64Z"/><path class="cls-2" d="M1158.25,380.83h16.57a225.52,225.52,0,0,1,225.52,225.52v753.48a0,0,0,0,1,0,0H1158.25a0,0,0,0,1,0,0v-979A0,0,0,0,1,1158.25,380.83Z"/><path class="cls-3" d="M1157.25,740.39V376.83h0c151.32,0,274,122.68,274,274v57.92a31.64,31.64,0,0,1-31.64,31.64Z"/><rect class="cls-3" x="417.16" y="239.39" width="758" height="375" rx="117.89"/><text class="cls-4" transform="translate(498.87 781.82)">very sneaky</text></svg>