<svg id="Layer_1" data-name="Layer 1" xmlns="http://www.w3.org/2000/svg" viewBox="0 0 1600 1600"><defs><style>.cls-1{fill:#f7643c;}.cls-2{fill:#c44b30;}</style></defs><rect class="cls-1" x="221.23" y="321.72" width="1156.96" height="929" rx="434.63"/><rect class="cls-2" x="639" y="245.31" width="308" height="175" rx="64.69"/><path class="cls-1" d="M1157,376.31h0a274,274,0,0,1,274,274v705a0,0,0,0,1,0,0H1157a0,0,0,0,1,0,0v-979A0,0,0,0,1,1157,376.31Z"/><path class="cls-1" d="M169,376.31H443a0,0,0,0,1,0,0v705a274,274,0,0,1-274,274h0a0,0,0,0,1,0,0v-979A0,0,0,0,1,169,376.31Z" transform="translate(612 1731.62) rotate(-180)"/></svg>