<svg id="Layer_1" data-name="Layer 1" xmlns="http://www.w3.org/2000/svg" viewBox="0 0 1600 1600"><defs><style>.cls-1{fill:#e8dbd1;}.cls-2{fill:#2b221c;}.cls-3{fill:#7ead40;}.cls-4{fill:#3f312e;}.cls-5{fill:#68843c;}.cls-6{fill:none;stroke:#5e4532;stroke-linecap:square;stroke-linejoin:round;stroke-width:40px;}</style></defs><path class="cls-1" d="M232.1,1236.5a10,10,0,0,1-6.74-17.39l1119-1021.76a10,10,0,0,1,13.48,14.77l-1119,1021.76A10,10,0,0,1,232.1,1236.5Z"/><path class="cls-2" d="M101.08,1289.24c-16.14,0-29.54-1.74-40.85-5.22l23.54-76.46c7.39,2.27,40.73,7.29,159.29-23.77,72.62-19,165.21-48.4,275.22-87.33,147.33-52.13,287-107.7,341.57-129.75a223.25,223.25,0,0,1,19.25-71.17c22-48,72.34-111.94,187.31-143.59,33.16-9.13,68.72-45.2,102.85-104.32,30.59-53,59.86-123.84,87-210.53,47-150,71-296.07,71.26-297.53l79,12.85c-1,6.15-25.06,152.38-73.62,307.77-28.9,92.47-60.57,168.88-94.12,227.09-20.79,36.06-42.75,65.82-65.27,88.45-27.06,27.17-55.93,45.12-85.83,53.35-66.77,18.38-111.94,50.84-134.25,96.47-16,32.7-14.52,61.63-14.34,64.29,2.19,17.85-7.92,34.15-24.57,41-1.77.73-179.1,73.65-369.24,140.94-112.17,39.69-207,69.76-281.78,89.36-45.31,11.87-84,20.06-115,24.35A350.32,350.32,0,0,1,101.08,1289.24Z"/><rect class="cls-3" x="233.54" y="315.01" width="1133" height="934.44" rx="431.37"/><rect class="cls-4" x="639.54" y="244.45" width="308" height="175" rx="64.69"/><path class="cls-4" d="M200.46,381.45H442.54a0,0,0,0,1,0,0v753.48A225.52,225.52,0,0,1,217,1360.45H200.46a0,0,0,0,1,0,0v-979A0,0,0,0,1,200.46,381.45Z" transform="translate(643 1741.9) rotate(-180)"/><path class="cls-5" d="M443.54,741V377.45h0c-151.32,0-274,122.67-274,274v57.92A31.65,31.65,0,0,0,201.18,741Z"/><path class="cls-4" d="M1158.54,381.45h16.57A225.52,225.52,0,0,1,1400.63,607v753.48a0,0,0,0,1,0,0H1158.54a0,0,0,0,1,0,0v-979A0,0,0,0,1,1158.54,381.45Z"/><path class="cls-5" d="M1157.54,741V377.45h0c151.33,0,274,122.67,274,274v57.92A31.64,31.64,0,0,1,1399.9,741Z"/><path class="cls-6" d="M1100.25,347.73S917.08,1083,495.77,1215"/></svg>