<svg xmlns="http://www.w3.org/2000/svg" viewBox="0 0 1262 1120.44"><defs><style>.cls-1{fill:#373a59;}.cls-2{fill:#3f312e;}.cls-3,.cls-4{fill:#252f3f;}.cls-4{font-size:72px;font-family:Menlo-Italic, Menlo;font-style:italic;letter-spacing:0.2em;}</style></defs><g id="Layer_2" data-name="Layer 2"><g id="Layer_1-2" data-name="Layer 1"><rect class="cls-1" x="64" y="75" width="1133" height="934.44" rx="431.37"/><rect class="cls-2" x="470" y="4.44" width="308" height="175" rx="64.69"/><path class="cls-2" d="M30.91,141.44H273a0,0,0,0,1,0,0V894.92A225.52,225.52,0,0,1,47.48,1120.44H30.91a0,0,0,0,1,0,0v-979A0,0,0,0,1,30.91,141.44Z" transform="translate(303.91 1261.88) rotate(-180)"/><path class="cls-3" d="M274,501V137.44h0c-151.33,0-274,122.67-274,274v57.92A31.65,31.65,0,0,0,31.64,501Z"/><path class="cls-2" d="M989,141.44h16.57A225.52,225.52,0,0,1,1231.09,367v753.48a0,0,0,0,1,0,0H989a0,0,0,0,1,0,0v-979A0,0,0,0,1,989,141.44Z"/><path class="cls-3" d="M988,501V137.44h0c151.33,0,274,122.67,274,274v57.92A31.65,31.65,0,0,1,1230.36,501Z"/><rect class="cls-3" x="247.91" width="758" height="375" rx="117.89"/><text class="cls-4" transform="translate(329.62 542.43)">very sneaky</text></g></g></svg>