<svg xmlns="http://www.w3.org/2000/svg" viewBox="0 0 1001 510.21"><defs><style>.cls-1{fill:#5e142d;}</style></defs><g id="Layer_2" data-name="Layer 2"><g id="Layer_1-2" data-name="Layer 1"><path class="cls-1" d="M320.49,0h327a0,0,0,0,1,0,0V310a0,0,0,0,1,0,0h-17a310,310,0,0,1-310-310V0a0,0,0,0,1,0,0Z"/><path class="cls-1" d="M639,0H966a0,0,0,0,1,0,0V310a0,0,0,0,1,0,0H949A310,310,0,0,1,639,0V0A0,0,0,0,1,639,0Z"/><rect class="cls-1" y="6.21" width="63.12" height="501.12" rx="29.49"/><rect class="cls-1" x="938" y="97.88" width="63" height="412.33" rx="26.72"/></g></g></svg>